<mxfile host="app.diagrams.net" modified="2023-07-18T16:22:18.432Z" agent="Mozilla/5.0 (X11; Linux x86_64; rv:109.0) Gecko/20100101 Firefox/111.0" etag="fg_LZwCJWp7Ug-miRGyS" version="21.6.2" type="device">
  <diagram name="Page-1" id="56GeS0gcNfEjKqNXWUxZ">
    <mxGraphModel dx="972" dy="731" grid="1" gridSize="10" guides="1" tooltips="1" connect="1" arrows="1" fold="1" page="1" pageScale="1" pageWidth="850" pageHeight="1100" math="0" shadow="0">
      <root>
        <mxCell id="0" />
        <mxCell id="1" parent="0" />
        <mxCell id="f640BaUGg0uLw_fSwio6-1" value="" style="ellipse;whiteSpace=wrap;html=1;aspect=fixed;fillColor=#cce5ff;strokeColor=#36393d;" vertex="1" parent="1">
          <mxGeometry x="90" y="350" width="80" height="80" as="geometry" />
        </mxCell>
        <mxCell id="f640BaUGg0uLw_fSwio6-2" value="" style="ellipse;whiteSpace=wrap;html=1;aspect=fixed;fillColor=#cdeb8b;strokeColor=#36393d;" vertex="1" parent="1">
          <mxGeometry x="10" y="470" width="80" height="80" as="geometry" />
        </mxCell>
        <mxCell id="f640BaUGg0uLw_fSwio6-3" value="" style="ellipse;whiteSpace=wrap;html=1;aspect=fixed;fillColor=#ffcccc;strokeColor=#36393d;" vertex="1" parent="1">
          <mxGeometry x="170" y="470" width="80" height="80" as="geometry" />
        </mxCell>
        <mxCell id="f640BaUGg0uLw_fSwio6-4" value="" style="ellipse;whiteSpace=wrap;html=1;aspect=fixed;fillColor=#ffcc99;strokeColor=#36393d;" vertex="1" parent="1">
          <mxGeometry x="90" y="590" width="80" height="80" as="geometry" />
        </mxCell>
        <mxCell id="f640BaUGg0uLw_fSwio6-9" value="" style="shape=flexArrow;endArrow=classic;html=1;rounded=0;fillColor=#000000;" edge="1" parent="1">
          <mxGeometry width="50" height="50" relative="1" as="geometry">
            <mxPoint x="290" y="510" as="sourcePoint" />
            <mxPoint x="370" y="510" as="targetPoint" />
          </mxGeometry>
        </mxCell>
        <mxCell id="f640BaUGg0uLw_fSwio6-22" style="edgeStyle=orthogonalEdgeStyle;rounded=0;orthogonalLoop=1;jettySize=auto;html=1;exitX=0.5;exitY=1;exitDx=0;exitDy=0;" edge="1" parent="1" source="f640BaUGg0uLw_fSwio6-10" target="f640BaUGg0uLw_fSwio6-11">
          <mxGeometry relative="1" as="geometry" />
        </mxCell>
        <mxCell id="f640BaUGg0uLw_fSwio6-10" value="" style="ellipse;whiteSpace=wrap;html=1;aspect=fixed;fillColor=#cce5ff;strokeColor=#36393d;" vertex="1" parent="1">
          <mxGeometry x="560" y="40" width="80" height="80" as="geometry" />
        </mxCell>
        <mxCell id="f640BaUGg0uLw_fSwio6-23" style="edgeStyle=orthogonalEdgeStyle;rounded=0;orthogonalLoop=1;jettySize=auto;html=1;exitX=0.5;exitY=1;exitDx=0;exitDy=0;entryX=0.5;entryY=0;entryDx=0;entryDy=0;" edge="1" parent="1" source="f640BaUGg0uLw_fSwio6-11" target="f640BaUGg0uLw_fSwio6-12">
          <mxGeometry relative="1" as="geometry" />
        </mxCell>
        <mxCell id="f640BaUGg0uLw_fSwio6-11" value="" style="ellipse;whiteSpace=wrap;html=1;aspect=fixed;fillColor=#cce5ff;strokeColor=#36393d;" vertex="1" parent="1">
          <mxGeometry x="560" y="160" width="80" height="80" as="geometry" />
        </mxCell>
        <mxCell id="f640BaUGg0uLw_fSwio6-12" value="" style="ellipse;whiteSpace=wrap;html=1;aspect=fixed;fillColor=#cce5ff;strokeColor=#36393d;" vertex="1" parent="1">
          <mxGeometry x="560" y="270" width="80" height="80" as="geometry" />
        </mxCell>
        <mxCell id="f640BaUGg0uLw_fSwio6-25" style="edgeStyle=orthogonalEdgeStyle;rounded=0;orthogonalLoop=1;jettySize=auto;html=1;exitX=0.5;exitY=1;exitDx=0;exitDy=0;entryX=0.5;entryY=0;entryDx=0;entryDy=0;" edge="1" parent="1" source="f640BaUGg0uLw_fSwio6-13" target="f640BaUGg0uLw_fSwio6-14">
          <mxGeometry relative="1" as="geometry" />
        </mxCell>
        <mxCell id="f640BaUGg0uLw_fSwio6-13" value="" style="ellipse;whiteSpace=wrap;html=1;aspect=fixed;fillColor=#cdeb8b;strokeColor=#36393d;" vertex="1" parent="1">
          <mxGeometry x="440" y="360" width="80" height="80" as="geometry" />
        </mxCell>
        <mxCell id="f640BaUGg0uLw_fSwio6-26" style="edgeStyle=orthogonalEdgeStyle;rounded=0;orthogonalLoop=1;jettySize=auto;html=1;exitX=0.5;exitY=1;exitDx=0;exitDy=0;entryX=0.5;entryY=0;entryDx=0;entryDy=0;" edge="1" parent="1" source="f640BaUGg0uLw_fSwio6-14" target="f640BaUGg0uLw_fSwio6-15">
          <mxGeometry relative="1" as="geometry" />
        </mxCell>
        <mxCell id="f640BaUGg0uLw_fSwio6-14" value="" style="ellipse;whiteSpace=wrap;html=1;aspect=fixed;fillColor=#cdeb8b;strokeColor=#36393d;" vertex="1" parent="1">
          <mxGeometry x="440" y="480" width="80" height="80" as="geometry" />
        </mxCell>
        <mxCell id="f640BaUGg0uLw_fSwio6-15" value="" style="ellipse;whiteSpace=wrap;html=1;aspect=fixed;fillColor=#cdeb8b;strokeColor=#36393d;" vertex="1" parent="1">
          <mxGeometry x="440" y="600" width="80" height="80" as="geometry" />
        </mxCell>
        <mxCell id="f640BaUGg0uLw_fSwio6-27" style="edgeStyle=orthogonalEdgeStyle;rounded=0;orthogonalLoop=1;jettySize=auto;html=1;exitX=0.5;exitY=1;exitDx=0;exitDy=0;entryX=0.5;entryY=0;entryDx=0;entryDy=0;" edge="1" parent="1" source="f640BaUGg0uLw_fSwio6-16" target="f640BaUGg0uLw_fSwio6-17">
          <mxGeometry relative="1" as="geometry" />
        </mxCell>
        <mxCell id="f640BaUGg0uLw_fSwio6-16" value="" style="ellipse;whiteSpace=wrap;html=1;aspect=fixed;fillColor=#ffcccc;strokeColor=#36393d;" vertex="1" parent="1">
          <mxGeometry x="680" y="360" width="80" height="80" as="geometry" />
        </mxCell>
        <mxCell id="f640BaUGg0uLw_fSwio6-28" style="edgeStyle=orthogonalEdgeStyle;rounded=0;orthogonalLoop=1;jettySize=auto;html=1;exitX=0.5;exitY=1;exitDx=0;exitDy=0;entryX=0.5;entryY=0;entryDx=0;entryDy=0;" edge="1" parent="1" source="f640BaUGg0uLw_fSwio6-17" target="f640BaUGg0uLw_fSwio6-18">
          <mxGeometry relative="1" as="geometry" />
        </mxCell>
        <mxCell id="f640BaUGg0uLw_fSwio6-17" value="" style="ellipse;whiteSpace=wrap;html=1;aspect=fixed;fillColor=#ffcccc;strokeColor=#36393d;" vertex="1" parent="1">
          <mxGeometry x="680" y="480" width="80" height="80" as="geometry" />
        </mxCell>
        <mxCell id="f640BaUGg0uLw_fSwio6-18" value="" style="ellipse;whiteSpace=wrap;html=1;aspect=fixed;fillColor=#ffcccc;strokeColor=#36393d;" vertex="1" parent="1">
          <mxGeometry x="680" y="600" width="80" height="80" as="geometry" />
        </mxCell>
        <mxCell id="f640BaUGg0uLw_fSwio6-29" style="edgeStyle=orthogonalEdgeStyle;rounded=0;orthogonalLoop=1;jettySize=auto;html=1;exitX=0.5;exitY=1;exitDx=0;exitDy=0;" edge="1" parent="1" source="f640BaUGg0uLw_fSwio6-19" target="f640BaUGg0uLw_fSwio6-20">
          <mxGeometry relative="1" as="geometry" />
        </mxCell>
        <mxCell id="f640BaUGg0uLw_fSwio6-19" value="" style="ellipse;whiteSpace=wrap;html=1;aspect=fixed;fillColor=#ffcc99;strokeColor=#36393d;" vertex="1" parent="1">
          <mxGeometry x="560" y="720" width="80" height="80" as="geometry" />
        </mxCell>
        <mxCell id="f640BaUGg0uLw_fSwio6-30" style="edgeStyle=orthogonalEdgeStyle;rounded=0;orthogonalLoop=1;jettySize=auto;html=1;exitX=0.5;exitY=1;exitDx=0;exitDy=0;entryX=0.5;entryY=0;entryDx=0;entryDy=0;" edge="1" parent="1" source="f640BaUGg0uLw_fSwio6-20" target="f640BaUGg0uLw_fSwio6-21">
          <mxGeometry relative="1" as="geometry" />
        </mxCell>
        <mxCell id="f640BaUGg0uLw_fSwio6-20" value="" style="ellipse;whiteSpace=wrap;html=1;aspect=fixed;fillColor=#ffcc99;strokeColor=#36393d;" vertex="1" parent="1">
          <mxGeometry x="560" y="840" width="80" height="80" as="geometry" />
        </mxCell>
        <mxCell id="f640BaUGg0uLw_fSwio6-21" value="" style="ellipse;whiteSpace=wrap;html=1;aspect=fixed;fillColor=#ffcc99;strokeColor=#36393d;" vertex="1" parent="1">
          <mxGeometry x="560" y="960" width="80" height="80" as="geometry" />
        </mxCell>
        <mxCell id="f640BaUGg0uLw_fSwio6-31" value="" style="endArrow=classic;html=1;rounded=0;entryX=0.5;entryY=0;entryDx=0;entryDy=0;exitX=0.5;exitY=1;exitDx=0;exitDy=0;targetPerimeterSpacing=0;strokeWidth=1;" edge="1" parent="1" target="f640BaUGg0uLw_fSwio6-2">
          <mxGeometry width="50" height="50" relative="1" as="geometry">
            <mxPoint x="130" y="430" as="sourcePoint" />
            <mxPoint x="50" y="490" as="targetPoint" />
          </mxGeometry>
        </mxCell>
        <mxCell id="f640BaUGg0uLw_fSwio6-32" value="" style="endArrow=classic;html=1;rounded=0;entryX=0.5;entryY=0;entryDx=0;entryDy=0;exitX=0.5;exitY=1;exitDx=0;exitDy=0;targetPerimeterSpacing=0;strokeWidth=1;" edge="1" parent="1" source="f640BaUGg0uLw_fSwio6-1" target="f640BaUGg0uLw_fSwio6-3">
          <mxGeometry width="50" height="50" relative="1" as="geometry">
            <mxPoint x="140" y="440" as="sourcePoint" />
            <mxPoint x="60" y="480" as="targetPoint" />
          </mxGeometry>
        </mxCell>
        <mxCell id="f640BaUGg0uLw_fSwio6-33" value="" style="endArrow=classic;html=1;rounded=0;entryX=0.5;entryY=0;entryDx=0;entryDy=0;exitX=0.5;exitY=1;exitDx=0;exitDy=0;targetPerimeterSpacing=0;strokeWidth=1;" edge="1" parent="1" source="f640BaUGg0uLw_fSwio6-3" target="f640BaUGg0uLw_fSwio6-4">
          <mxGeometry width="50" height="50" relative="1" as="geometry">
            <mxPoint x="150" y="450" as="sourcePoint" />
            <mxPoint x="70" y="490" as="targetPoint" />
          </mxGeometry>
        </mxCell>
        <mxCell id="f640BaUGg0uLw_fSwio6-34" value="" style="endArrow=classic;html=1;rounded=0;exitX=0.5;exitY=1;exitDx=0;exitDy=0;targetPerimeterSpacing=0;strokeWidth=1;" edge="1" parent="1" source="f640BaUGg0uLw_fSwio6-2">
          <mxGeometry width="50" height="50" relative="1" as="geometry">
            <mxPoint x="160" y="460" as="sourcePoint" />
            <mxPoint x="130" y="590" as="targetPoint" />
          </mxGeometry>
        </mxCell>
        <mxCell id="f640BaUGg0uLw_fSwio6-35" value="" style="endArrow=classic;html=1;rounded=0;exitX=0.5;exitY=1;exitDx=0;exitDy=0;targetPerimeterSpacing=0;strokeWidth=1;" edge="1" parent="1" source="f640BaUGg0uLw_fSwio6-12">
          <mxGeometry width="50" height="50" relative="1" as="geometry">
            <mxPoint x="250" y="330" as="sourcePoint" />
            <mxPoint x="480" y="360" as="targetPoint" />
          </mxGeometry>
        </mxCell>
        <mxCell id="f640BaUGg0uLw_fSwio6-37" value="" style="endArrow=classic;html=1;rounded=0;targetPerimeterSpacing=0;strokeWidth=1;entryX=0.5;entryY=0;entryDx=0;entryDy=0;" edge="1" parent="1" target="f640BaUGg0uLw_fSwio6-16">
          <mxGeometry width="50" height="50" relative="1" as="geometry">
            <mxPoint x="600" y="350" as="sourcePoint" />
            <mxPoint x="490" y="370" as="targetPoint" />
          </mxGeometry>
        </mxCell>
        <mxCell id="f640BaUGg0uLw_fSwio6-39" value="" style="endArrow=classic;html=1;rounded=0;targetPerimeterSpacing=0;strokeWidth=1;entryX=0.5;entryY=0;entryDx=0;entryDy=0;exitX=0.5;exitY=1;exitDx=0;exitDy=0;" edge="1" parent="1" source="f640BaUGg0uLw_fSwio6-15" target="f640BaUGg0uLw_fSwio6-19">
          <mxGeometry width="50" height="50" relative="1" as="geometry">
            <mxPoint x="610" y="360" as="sourcePoint" />
            <mxPoint x="730" y="370" as="targetPoint" />
          </mxGeometry>
        </mxCell>
        <mxCell id="f640BaUGg0uLw_fSwio6-40" value="" style="endArrow=classic;html=1;rounded=0;targetPerimeterSpacing=0;strokeWidth=1;entryX=0.5;entryY=0;entryDx=0;entryDy=0;exitX=0.5;exitY=1;exitDx=0;exitDy=0;" edge="1" parent="1" source="f640BaUGg0uLw_fSwio6-18" target="f640BaUGg0uLw_fSwio6-19">
          <mxGeometry width="50" height="50" relative="1" as="geometry">
            <mxPoint x="490" y="690" as="sourcePoint" />
            <mxPoint x="610" y="730" as="targetPoint" />
          </mxGeometry>
        </mxCell>
      </root>
    </mxGraphModel>
  </diagram>
</mxfile>
